Musala Señal.ufo
<glyph name="hyphen" format="2">
	<advance width="446.78"/>
	<unicode hex="002D"/>
	<outline>
		<contour>
			<point x="44.999" y="402.701" type="line"/>
			<point x="44.999" y="303.701" type="line"/>
			<point x="116.493" y="306.67"/>
			<point x="172.853" y="308.64"/>
			<point x="221.347" y="308.609" type="curve" smooth="yes"/>
			<point x="266.779" y="308.58"/>
			<point x="333.344" y="306.67"/>
			<point x="401.775" y="303.701" type="curve"/>
			<point x="401.775" y="402.701" type="line"/>
		</contour>
	</outline>
</glyph>
<glyph name="period" format="2">
	<advance width="243.78"/>
	<unicode hex="002E"/>
	<outline>
		<contour>
			<point x="209.783" y="70.618" type="curve" smooth="yes"/>
			<point x="209.783" y="22.587"/>
			<point x="170.871" y="-11.062"/>
			<point x="121.893" y="-11.062" type="curve" smooth="yes"/>
			<point x="73.353" y="-11.062"/>
			<point x="34.002" y="22.587"/>
			<point x="34.002" y="70.618" type="curve" smooth="yes"/>
			<point x="34.002" y="118.649"/>
			<point x="73.353" y="152.297"/>
			<point x="121.893" y="152.297" type="curve" smooth="yes"/>
			<point x="170.434" y="152.297"/>
			<point x="209.783" y="118.649"/>
		</contour>
	</outline>
</glyph>
<glyph name="one" format="2">
	<advance width="438.15"/>
	<unicode hex="0031"/>
	<outline>
		<contour>
			<point x="89.01623" y="683.12024" type="curve"/>
			<point x="85.99153" y="680.95625"/>
			<point x="52.96698" y="653.12473"/>
			<point x="49.63765" y="649.80081" type="curve"/>
			<point x="93.56202" y="559.60151" type="line"/>
			<point x="238.272" y="639.849" type="line"/>
			<point x="227.97" y="666.875" type="line"/>
			<point x="221.97" y="587.137" type="line"/>
			<point x="221.97" y="0" type="line"/>
			<point x="364.97" y="0" type="line"/>
			<point x="361.97375" y="35.07031"/>
			<point x="355.859" y="102.48"/>
			<point x="353.859" y="122.746" type="curve"/>
			<point x="353.859" y="576.867" type="line"/>
			<point x="353.859" y="625.071"/>
			<point x="368.919" y="733.167"/>
			<point x="373.148" y="748.07" type="curve"/>
			<point x="368.148" y="750.11"/>
			<point x="288.292" y="762.444"/>
			<point x="280.97" y="763" type="curve"/>
			<point x="269.144" y="760.533"/>
			<point x="235.272" y="748.66"/>
			<point x="219.422" y="742.167" type="curve" smooth="yes"/>
			<point x="198.54472" y="733.6155"/>
			<point x="133.71047" y="703.76802"/>
		</contour>
	</outline>
</glyph>
<glyph name="eight" format="2">
	<advance width="611.81"/>
	<unicode hex="0038"/>
	<outline>
		<contour>
			<point x="312.654" y="-11" type="curve" smooth="yes"/>
			<point x="469.269" y="-11"/>
			<point x="561.813" y="106.46875"/>
			<point x="561.813" y="212.96875" type="curve" smooth="yes"/>
			<point x="561.813" y="290.10938"/>
			<point x="532.916" y="337.1849"/>
			<point x="419.788" y="401.758" type="curve"/>
			<point x="441.869" y="412.761"/>
			<point x="540.911" y="468.25"/>
			<point x="540.911" y="573" type="curve" smooth="yes"/>
			<point x="540.911" y="676"/>
			<point x="452.884" y="771.039"/>
			<point x="312.971" y="771.039" type="curve" smooth="yes"/>
			<point x="197.214" y="771.039"/>
			<point x="90.847" y="683.96"/>
			<point x="90.847" y="576" type="curve" smooth="yes"/>
			<point x="90.847" y="473.287"/>
			<point x="156.931" y="429.695"/>
			<point x="195.149" y="403.758" type="curve"/>
			<point x="137.666" y="367.066"/>
			<point x="50.003" y="310.478"/>
			<point x="50.003" y="191.6875" type="curve" smooth="yes"/>
			<point x="50.003" y="87.3405"/>
			<point x="149.093" y="-11"/>
		</contour>
		<contour>
			<point x="310.901" y="79" type="curve" smooth="yes"/>
			<point x="212.33922" y="79"/>
			<point x="178.434" y="152.625"/>
			<point x="178.434" y="217.281" type="curve" smooth="yes"/>
			<point x="178.434" y="286.789"/>
			<point x="214.992" y="341.06"/>
			<point x="250.865" y="367.066" type="curve"/>
			<point x="268.11" y="358.306"/>
			<point x="372.07346" y="307.02252"/>
			<point x="391.30146" y="291.82552" type="curve"/>
			<point x="419.788" y="273.78391"/>
			<point x="436.119" y="246.108"/>
			<point x="436.119" y="207.12" type="curve" smooth="yes"/>
			<point x="436.119" y="170.805"/>
			<point x="429.66" y="145.425"/>
			<point x="425.893" y="133.672" type="curve"/>
			<point x="414.479" y="116.359"/>
			<point x="372.07346" y="79"/>
		</contour>
		<contour>
			<point x="368.347" y="433.841" type="curve"/>
			<point x="279.921" y="480.526" type="line" smooth="yes"/>
			<point x="243.51371" y="499.74743"/>
			<point x="210.149" y="540.95666"/>
			<point x="210.149" y="583.05859" type="curve" smooth="yes"/>
			<point x="210.149" y="613.04688"/>
			<point x="220.12828" y="645.08984"/>
			<point x="229.401" y="656.718" type="curve"/>
			<point x="240" y="666.497"/>
			<point x="274.89" y="681"/>
			<point x="311.81" y="681" type="curve" smooth="yes"/>
			<point x="465.92" y="681"/>
			<point x="432.351" y="490.847"/>
		</contour>
	</outline>
</glyph>
<glyph name="A" format="2">
	<advance width="672.11"/>
	<unicode hex="0041"/>
	<guideline x="695.59" y="780" angle="0"/>
	<anchor x="336" y="800" name="top"/>
	<anchor x="336" y="0" name="bottom"/>
	<anchor x="613" y="10" name="ogonek"/>
	<outline>
		<contour>
			<point x="187.553" y="0" type="line"/>
			<point x="219.445" y="190.501"/>
			<point x="297.304" y="546.979"/>
			<point x="327.636" y="663.435" type="curve"/>
			<point x="351.786" y="663.435" type="line"/>
			<point x="378.424" y="548.288"/>
			<point x="427.407" y="260.947"/>
			<point x="477.489" y="0.719" type="curve"/>
			<point x="632.114" y="0" type="line"/>
			<point x="626.665" y="14.99"/>
			<point x="596.722" y="116.979"/>
			<point x="593.496" y="130.818" type="curve"/>
			<point x="484.827" y="632.85" type="line" smooth="yes"/>
			<point x="476.786" y="669.996"/>
			<point x="463.09" y="749.284"/>
			<point x="458.853" y="780" type="curve"/>
			<point x="444.066" y="785.085"/>
			<point x="379.818" y="800.073"/>
			<point x="370.348" y="800.073" type="curve"/>
			<point x="350.083" y="800.073"/>
			<point x="247.615" y="773.663"/>
			<point x="232.608" y="764.46" type="curve"/>
			<point x="213.535" y="664.218" type="line"/>
			<point x="81.092" y="139.785" type="line"/>
			<point x="77.084" y="120.868"/>
			<point x="45.632" y="14.99"/>
			<point x="40" y="0.719" type="curve"/>
		</contour>
		<contour>
			<point x="181.56" y="234" type="line"/>
			<point x="491.56" y="234" type="line"/>
			<point x="491.56" y="328" type="line"/>
			<point x="401.56" y="321"/>
			<point x="271.56" y="320"/>
			<point x="181.56" y="328" type="curve"/>
		</contour>
	</outline>
</glyph>
<glyph name="B" format="2">
	<advance width="599.97"/>
	<unicode hex="0042"/>
	<outline>
		<contour>
			<point x="65" y="0" type="curve"/>
			<point x="205" y="0" type="line" smooth="yes"/>
			<point x="333.807" y="0"/>
			<point x="380.947" y="6.98"/>
			<point x="432.432" y="22.337" type="curve" smooth="yes"/>
			<point x="492.717" y="40.319"/>
			<point x="559.972" y="132.94"/>
			<point x="559.972" y="254.467" type="curve" smooth="yes"/>
			<point x="559.972" y="374.51"/>
			<point x="469.981" y="392.318"/>
			<point x="402.424" y="419.115" type="curve"/>
			<point x="402.424" y="409.28" type="line"/>
			<point x="460.786" y="434.214"/>
			<point x="534.7" y="466.329"/>
			<point x="534.7" y="587.049" type="curve" smooth="yes"/>
			<point x="534.7" y="668.898"/>
			<point x="495.471" y="745.359"/>
			<point x="437.935" y="768.688" type="curve" smooth="yes"/>
			<point x="386.003" y="789.744"/>
			<point x="281.592" y="800.152"/>
			<point x="212.719" y="800.152" type="curve" smooth="yes"/>
			<point x="179.22" y="800.152"/>
			<point x="110.24" y="789.744"/>
			<point x="66" y="783.04" type="curve"/>
			<point x="72.778" y="729.041"/>
			<point x="75.495" y="635.948"/>
			<point x="80.045" y="578.414" type="curve"/>
			<point x="80.055" y="153.611" type="line"/>
			<point x="80.041" y="121.307"/>
			<point x="70.648" y="41.229"/>
		</contour>
		<contour>
			<point x="324.648" y="96.194" type="curve" smooth="yes"/>
			<point x="302.928" y="96.194"/>
			<point x="249.656" y="97.528"/>
			<point x="215" y="99.537" type="curve"/>
			<point x="215" y="361.385" type="line"/>
			<point x="266.823" y="360.638" type="line"/>
			<point x="364.994" y="360.638"/>
			<point x="420.29" y="328.265"/>
			<point x="420.29" y="247.666" type="curve" smooth="yes"/>
			<point x="420.29" y="155.718"/>
			<point x="390.107" y="96.194"/>
		</contour>
		<contour>
			<point x="255.879" y="441.137" type="curve" smooth="yes"/>
			<point x="241.425" y="441.137"/>
			<point x="227.777" y="441.611"/>
			<point x="215" y="442.385" type="curve"/>
			<point x="215" y="696.678" type="line"/>
			<point x="233.971" y="698.369"/>
			<point x="258.736" y="700.271"/>
			<point x="281.592" y="700.271" type="curve" smooth="yes"/>
			<point x="364.994" y="700.271"/>
			<point x="395.018" y="655.103"/>
			<point x="395.018" y="587.049" type="curve" smooth="yes"/>
			<point x="395.018" y="489.62"/>
			<point x="366.559" y="441.137"/>
		</contour>
	</outline>
</glyph>
<glyph name="D" format="2">
	<advance width="632"/>
	<unicode hex="0044"/>
	<outline>
		<contour>
			<point x="65" y="0" type="curve"/>
			<point x="249" y="0" type="line"/>
			<point x="342.162" y="0"/>
			<point x="413.583" y="18.163"/>
			<point x="447.865" y="42.267" type="curve" smooth="yes"/>
			<point x="531.317" y="100.943"/>
			<point x="592" y="305.287"/>
			<point x="592" y="448.508" type="curve" smooth="yes"/>
			<point x="592" y="653.508"/>
			<point x="490.278" y="751.3"/>
			<point x="430.886" y="775.128" type="curve" smooth="yes"/>
			<point x="380.728" y="795.251"/>
			<point x="281.3" y="801.152"/>
			<point x="219.719" y="801.152" type="curve" smooth="yes"/>
			<point x="186.22" y="801.152"/>
			<point x="111.24" y="790.744"/>
			<point x="67" y="784.04" type="curve"/>
			<point x="73.778" y="730.041"/>
			<point x="77.495" y="645.948"/>
			<point x="82.045" y="588.414" type="curve"/>
			<point x="82.055" y="153.611" type="line"/>
			<point x="82.041" y="121.307"/>
			<point x="70.648" y="41.229"/>
		</contour>
		<contour>
			<point x="217" y="79.5" type="line"/>
			<point x="217" y="724.5" type="line"/>
			<point x="195.583" y="693.542" type="line"/>
			<point x="219.315" y="695.946"/>
			<point x="263.76" y="701.271"/>
			<point x="300.543" y="701.271" type="curve" smooth="yes"/>
			<point x="368.427" y="701.271"/>
			<point x="450" y="672.409"/>
			<point x="450" y="463.66" type="curve" smooth="yes"/>
			<point x="450" y="275.015"/>
			<point x="417.445" y="97.163"/>
			<point x="295.445" y="96.163" type="curve" smooth="yes"/>
			<point x="257.447" y="95.849"/>
			<point x="195" y="102.5"/>
			<point x="194" y="103.5" type="curve"/>
		</contour>
	</outline>
</glyph>
<glyph name="F" format="2">
	<advance width="543.78"/>
	<unicode hex="0046"/>
	<outline>
		<contour>
			<point x="67.86" y="0" type="curve"/>
			<point x="215.86" y="0" type="line"/>
			<point x="215.86" y="744.941" type="line"/>
			<point x="178.629" y="711.471" type="line"/>
			<point x="299.534" y="711.471"/>
			<point x="442.062" y="708.937"/>
			<point x="498.779" y="704.937" type="curve"/>
			<point x="498.779" y="799.937" type="line"/>
			<point x="163.264" y="800.438" type="line" smooth="yes"/>
			<point x="143.995" y="800.467"/>
			<point x="100.309" y="787.751"/>
			<point x="65.003" y="779.471" type="curve"/>
			<point x="71.781" y="725.472"/>
			<point x="76.355" y="645.948"/>
			<point x="80.905" y="588.414" type="curve"/>
			<point x="80.915" y="153.611" type="line"/>
			<point x="80.915" y="128.688"/>
			<point x="73.508" y="41.229"/>
		</contour>
		<contour>
			<point x="202.003" y="341" type="line"/>
			<point x="463.003" y="341" type="line"/>
			<point x="463.003" y="435" type="line"/>
			<point x="372.85" y="427.602"/>
			<point x="292.13" y="426.622"/>
			<point x="202.003" y="435" type="curve"/>
		</contour>
	</outline>
</glyph>
<glyph name="L" format="2">
	<advance width="545.49"/>
	<unicode hex="004C"/>
	<outline>
		<contour>
			<point x="67.86" y="0" type="curve"/>
			<point x="495.49" y="0" type="line"/>
			<point x="495.49" y="108" type="line"/>
			<point x="438.49" y="100"/>
			<point x="329.49" y="92"/>
			<point x="192.49" y="92" type="curve"/>
			<point x="215.49" y="80" type="line"/>
			<point x="215.208" y="789.373" type="line"/>
			<point x="209.766" y="791.694"/>
			<point x="173.937" y="800.453"/>
			<point x="163.021" y="800.373" type="curve" smooth="yes"/>
			<point x="152.371" y="800.295"/>
			<point x="76.739" y="783.28"/>
			<point x="65.003" y="779.471" type="curve"/>
			<point x="71.781" y="725.472"/>
			<point x="76.355" y="645.948"/>
			<point x="80.905" y="588.414" type="curve"/>
			<point x="80.915" y="153.611" type="line"/>
			<point x="80.915" y="128.688"/>
			<point x="73.508" y="41.229"/>
		</contour>
	</outline>
</glyph>
<glyph name="S" format="2">
	<advance width="608.91"/>
	<unicode hex="0053"/>
	<outline>
		<contour>
			<point x="491.53689" y="395.39486"/>
			<point x="568.90519" y="348.07647"/>
			<point x="568.90519" y="264.54285" type="curve" smooth="yes"/>
			<point x="568.90519" y="192.87997"/>
			<point x="537.30699" y="107.49039"/>
			<point x="499.72547" y="56.24238" type="curve"/>
			<point x="468.86902" y="21.6113"/>
			<point x="392.36564" y="-11"/>
			<point x="300.99219" y="-11" type="curve" smooth="yes"/>
			<point x="227.32978" y="-11"/>
			<point x="135.74089" y="0"/>
			<point x="39.996" y="76" type="curve"/>
			<point x="84.89969" y="149.32294" type="line"/>
			<point x="143.66933" y="118.42125"/>
			<point x="209.27172" y="92.194"/>
			<point x="296.33268" y="92.194" type="curve" smooth="yes"/>
			<point x="388.84368" y="92.194"/>
			<point x="423.16781" y="143.48047"/>
			<point x="423.16781" y="233.71875" type="curve" smooth="yes"/>
			<point x="423.16781" y="288.50781"/>
			<point x="315.81515" y="330.53487"/>
			<point x="231.49184" y="375.04306" type="curve" smooth="yes"/>
			<point x="122.50677" y="432.56841"/>
			<point x="51.32742" y="505.27134"/>
			<point x="51.32742" y="586.74834" type="curve" smooth="yes"/>
			<point x="51.32742" y="662.45285"/>
			<point x="100.29393" y="735.99455"/>
			<point x="143.66933" y="769.00699" type="curve"/>
			<point x="174.47584" y="784.39962"/>
			<point x="261.22975" y="805.92843"/>
			<point x="328.29297" y="805.92843" type="curve" smooth="yes"/>
			<point x="388.84368" y="805.92843"/>
			<point x="444.24593" y="798.601"/>
			<point x="486.76258" y="784.98623" type="curve"/>
			<point x="495.25465" y="775.64781"/>
			<point x="517.43096" y="743.56484"/>
			<point x="517.43096" y="738.68883" type="curve" smooth="yes"/>
			<point x="517.43096" y="722.7878"/>
			<point x="470.12487" y="662.45285"/>
			<point x="457.86902" y="652.00042" type="curve"/>
			<point x="439.55107" y="661.42269"/>
			<point x="381.86817" y="704.78736"/>
			<point x="308.76125" y="704.78736" type="curve" smooth="yes"/>
			<point x="246.52982" y="704.78736"/>
			<point x="192.72863" y="669.4188"/>
			<point x="192.72863" y="619.05185" type="curve" smooth="yes"/>
			<point x="192.72863" y="545.56061"/>
			<point x="284.58541" y="505.27134"/>
			<point x="392.36564" y="448.04772" type="curve" smooth="yes"/>
		</contour>
	</outline>
</glyph>
<glyph name="Y" format="2">
	<advance width="642.72"/>
	<unicode hex="0059"/>
	<outline>
		<contour>
			<point x="50.001" y="780.955" type="curve"/>
			<point x="56.52" y="757.609"/>
			<point x="68.074" y="719.142"/>
			<point x="71.724" y="637.24" type="curve"/>
			<point x="75.346" y="469.506" type="line"/>
			<point x="75.346" y="424.412"/>
			<point x="82.945" y="360.729"/>
			<point x="102.306" y="338.689" type="curve"/>
			<point x="148.009" y="273.853"/>
			<point x="292.019" y="189.194"/>
			<point x="323.887" y="189.194" type="curve" smooth="yes"/>
			<point x="349.173" y="189.194"/>
			<point x="488.982" y="299.415"/>
			<point x="513.36" y="332.116" type="curve"/>
			<point x="454.804" y="367.729" type="line"/>
			<point x="440.87" y="345.77"/>
			<point x="378.767" y="301.759"/>
			<point x="333.49" y="301.759" type="curve" smooth="yes"/>
			<point x="300.391" y="301.759"/>
			<point x="215.777" y="354.118"/>
			<point x="214.331" y="415.633" type="curve" smooth="yes"/>
			<point x="205.546" y="789.373" type="line"/>
			<point x="200.104" y="791.694"/>
			<point x="164.275" y="800.453"/>
			<point x="153.359" y="800.373" type="curve" smooth="yes"/>
			<point x="142.709" y="800.295"/>
			<point x="61.737" y="784.764"/>
		</contour>
		<contour>
			<point x="160.363" y="-26.057" type="curve"/>
			<point x="193.383" y="-103.378" type="line"/>
			<point x="247.489" y="-86.939"/>
			<point x="432.902" y="-37.632"/>
			<point x="467.457" y="-14.143" type="curve" smooth="yes"/>
			<point x="499.656" y="7.746"/>
			<point x="546.15" y="66.135"/>
			<point x="555.143" y="108.139" type="curve"/>
			<point x="563.152" y="193.922"/>
			<point x="567.329" y="328.916"/>
			<point x="567.329" y="414.792" type="curve" smooth="yes"/>
			<point x="567.329" y="555.037"/>
			<point x="579.954" y="674.672"/>
			<point x="577.367" y="789.164" type="curve"/>
			<point x="571.945" y="791.485"/>
			<point x="535.192" y="800.244"/>
			<point x="524.276" y="800.164" type="curve" smooth="yes"/>
			<point x="513.625" y="800.086"/>
			<point x="429.518" y="784.855"/>
			<point x="417.748" y="780.746" type="curve"/>
			<point x="436.737" y="709.121"/>
			<point x="427.951" y="547.858"/>
			<point x="427.951" y="389.157" type="curve" smooth="yes"/>
			<point x="427.951" y="212.182"/>
			<point x="426.78" y="130.267"/>
			<point x="399.422" y="91.977" type="curve"/>
			<point x="369.366" y="50.172"/>
			<point x="202.774" y="-5.726"/>
		</contour>
	</outline>
</glyph>
<glyph name="Z" format="2">
	<advance width="598.14"/>
	<unicode hex="005A"/>
	<outline>
		<contour>
			<point x="540" y="0" type="line"/>
			<point x="540.143" y="108" type="line"/>
			<point x="481.99" y="100.363"/>
			<point x="372.542" y="92"/>
			<point x="236" y="92" type="curve" smooth="yes"/>
			<point x="201.217" y="92"/>
			<point x="174.021" y="91.477"/>
			<point x="145.178" y="91.501" type="curve"/>
			<point x="50" y="84" type="line"/>
			<point x="50" y="0" type="line"/>
		</contour>
		<contour>
			<point x="548.143" y="779.471" type="line"/>
			<point x="513.143" y="788.471"/>
			<point x="471" y="800"/>
			<point x="452" y="800" type="curve" smooth="yes"/>
			<point x="375" y="800"/>
			<point x="226" y="800"/>
			<point x="60" y="800" type="curve"/>
			<point x="60" y="704" type="line"/>
			<point x="109" y="708"/>
			<point x="375.012" y="711"/>
			<point x="411.012" y="711" type="curve" smooth="yes"/>
			<point x="418.986" y="711"/>
			<point x="440.546" y="710.717"/>
			<point x="466.66" y="709.85" type="curve" smooth="yes"/>
			<point x="489.634" y="709.087"/>
			<point x="516.131" y="699.872"/>
			<point x="540" y="698" type="curve"/>
		</contour>
		<contour>
			<point x="479.221" y="753.318" type="line"/>
			<point x="447.308" y="732.797"/>
			<point x="389.342" y="678.211"/>
			<point x="374.003" y="651.352" type="curve" smooth="yes"/>
			<point x="50" y="84" type="line"/>
			<point x="106" y="53" type="line"/>
			<point x="163.909" y="53" type="line"/>
			<point x="190.294" y="87.043"/>
			<point x="228.893" y="124.945"/>
			<point x="245.063" y="155.129" type="curve" smooth="yes"/>
			<point x="270.533" y="202.673"/>
			<point x="498.009" y="611.35"/>
			<point x="540" y="698" type="curve"/>
		</contour>
	</outline>
</glyph>
<glyph name="b" format="2">
	<advance width="595"/>
	<unicode hex="0062"/>
	<guideline x="66.31" y="329" angle="0"/>
	<guideline x="66.31" y="485" angle="0"/>
	<guideline x="66.31" y="83" angle="0"/>
	<outline>
		<contour>
			<point x="54.999" y="783.753" type="curve"/>
			<point x="64.412" y="752.292"/>
			<point x="79.472" y="659.33"/>
			<point x="81.805" y="618.287" type="curve"/>
			<point x="81.81" y="155.186" type="line"/>
			<point x="76.758" y="124.867"/>
			<point x="74.583" y="70.496"/>
			<point x="71.956" y="38.82" type="curve"/>
			<point x="95.729" y="27.745"/>
			<point x="232.135" y="-11.023"/>
			<point x="275.617" y="-11.023" type="curve" smooth="yes"/>
			<point x="469.597" y="-11.023"/>
			<point x="554.999" y="132.025"/>
			<point x="554.999" y="321" type="curve" smooth="yes"/>
			<point x="554.999" y="483.532"/>
			<point x="458.863" y="600"/>
			<point x="358.999" y="600" type="curve" smooth="yes"/>
			<point x="305.54" y="600"/>
			<point x="200.541" y="557.617"/>
			<point x="165.727" y="533.617" type="curve"/>
			<point x="182.56" y="452.79" type="line"/>
			<point x="210.508" y="470.711"/>
			<point x="286.999" y="513"/>
			<point x="318.829" y="513" type="curve" smooth="yes"/>
			<point x="355.918" y="513"/>
			<point x="423.999" y="478.171"/>
			<point x="423.999" y="293" type="curve" smooth="yes"/>
			<point x="423.999" y="123.91"/>
			<point x="363.481" y="73"/>
			<point x="292.973" y="73" type="curve" smooth="yes"/>
			<point x="263.31" y="73"/>
			<point x="236.135" y="78"/>
			<point x="213.999" y="83" type="curve"/>
			<point x="213.999" y="813" type="line"/>
			<point x="209.145" y="816.985"/>
			<point x="169.934" y="828.564"/>
			<point x="159.018" y="828.484" type="curve" smooth="yes"/>
			<point x="148.368" y="828.406"/>
			<point x="60.857" y="789.867"/>
		</contour>
	</outline>
</glyph>
<glyph name="q" format="2">
	<advance width="580.15"/>
	<unicode hex="0071"/>
	<guideline x="-13.81" y="520" angle="0"/>
	<guideline x="-13.81" y="83" angle="0"/>
	<guideline x="-13.81" y="553" angle="0"/>
	<outline>
		<contour>
			<point x="252.854" y="-11.009" type="curve" smooth="yes"/>
			<point x="298.356" y="-11.009"/>
			<point x="389.905" y="39.164"/>
			<point x="415.089" y="48.901" type="curve"/>
			<point x="409.682" y="139.523" type="line"/>
			<point x="390.629" y="123.859"/>
			<point x="328.13" y="73"/>
			<point x="277.854" y="73" type="curve" smooth="yes"/>
			<point x="217.695" y="73"/>
			<point x="169.854" y="132"/>
			<point x="169.854" y="300" type="curve" smooth="yes"/>
			<point x="169.854" y="466"/>
			<point x="243.854" y="513"/>
			<point x="282.854" y="513" type="curve" smooth="yes"/>
			<point x="311.732" y="513"/>
			<point x="399.461" y="471"/>
			<point x="419.461" y="458" type="curve"/>
			<point x="447.461" y="524.829" type="line"/>
			<point x="429.461" y="544.829"/>
			<point x="318.854" y="600"/>
			<point x="248.854" y="600" type="curve" smooth="yes"/>
			<point x="136.854" y="600"/>
			<point x="39.999" y="474.467"/>
			<point x="39.999" y="282.522" type="curve" smooth="yes"/>
			<point x="39.999" y="113.329"/>
			<point x="136.472" y="-11.009"/>
		</contour>
		<contour>
			<point x="522.417" y="-209.425" type="line"/>
			<point x="521.004" y="-181.003"/>
			<point x="514.087" y="-99.372"/>
			<point x="511.549" y="-58.276" type="curve"/>
			<point x="511.544" y="399.793" type="line"/>
			<point x="513.882" y="431.419"/>
			<point x="526.261" y="547.262"/>
			<point x="530.146" y="579.234" type="curve"/>
			<point x="522.417" y="588.209"/>
			<point x="486.852" y="603.655"/>
			<point x="475.936" y="603.575" type="curve" smooth="yes"/>
			<point x="465.286" y="603.497"/>
			<point x="390.629" y="564.271"/>
			<point x="379.917" y="553.091" type="curve"/>
			<point x="379.917" y="-209.425" type="line"/>
		</contour>
	</outline>
</glyph>
<glyph name="u" format="2">
	<advance width="561.81"/>
	<unicode hex="0075"/>
	<anchor x="264" y="600" name="top"/>
	<anchor x="281" y="0" name="bottom"/>
	<anchor x="506" y="10" name="ogonek"/>
	<anchor x="541.81" y="600" name="topright"/>
	<outline>
		<contour>
			<point x="196" y="585" type="line"/>
			<point x="181" y="593"/>
			<point x="152" y="600"/>
			<point x="143" y="600" type="curve" smooth="yes"/>
			<point x="133" y="600"/>
			<point x="81" y="574"/>
			<point x="45" y="553" type="curve"/>
			<point x="54.977" y="501.828"/>
			<point x="64" y="437.18"/>
			<point x="64" y="405.539" type="curve" smooth="yes"/>
			<point x="64" y="337.098"/>
			<point x="64" y="110.755"/>
			<point x="64" y="92" type="curve" smooth="yes"/>
			<point x="64" y="79"/>
			<point x="125" y="38"/>
			<point x="134" y="32" type="curve" smooth="yes"/>
			<point x="142" y="26"/>
			<point x="211" y="-11"/>
			<point x="231" y="-11" type="curve" smooth="yes"/>
			<point x="264" y="-11"/>
			<point x="397" y="81"/>
			<point x="415" y="94" type="curve"/>
			<point x="388" y="143" type="line"/>
			<point x="381" y="134"/>
			<point x="306" y="76"/>
			<point x="265" y="76" type="curve" smooth="yes"/>
			<point x="219" y="76"/>
			<point x="196" y="114.883"/>
			<point x="196" y="163" type="curve" smooth="yes"/>
		</contour>
		<contour>
			<point x="412" y="0" type="line"/>
			<point x="506.812" y="0" type="line"/>
			<point x="496.797" y="34.078"/>
			<point x="487.84" y="104.238"/>
			<point x="487.84" y="159.888" type="curve" smooth="yes"/>
			<point x="487.84" y="236.277"/>
			<point x="487.84" y="342.662"/>
			<point x="487.84" y="399.793" type="curve" smooth="yes"/>
			<point x="487.84" y="452.823"/>
			<point x="487.207" y="556.891"/>
			<point x="491.812" y="585" type="curve"/>
			<point x="486.812" y="589"/>
			<point x="458.045" y="602"/>
			<point x="447" y="602" type="curve" smooth="yes"/>
			<point x="436" y="602"/>
			<point x="361.367" y="565.891"/>
			<point x="355.367" y="559.891" type="curve"/>
			<point x="356" y="86" type="line"/>
		</contour>
	</outline>
</glyph>
<glyph name="x" format="2">
	<advance width="538.28"/>
	<unicode hex="0078"/>
	<guideline x="502.97" y="554.4" angle="270"/>
	<outline>
		<contour>
			<point x="356.465" y="-0.001" type="line"/>
			<point x="498.28" y="0.399" type="line"/>
			<point x="470.844" y="95.844" type="line"/>
			<point x="462.844" y="129.785"/>
			<point x="414.219" y="232.065"/>
			<point x="403.647" y="247.591" type="curve"/>
			<point x="385.683" y="263.729"/>
			<point x="255.173" y="386.254"/>
			<point x="247.342" y="408.227" type="curve" smooth="yes"/>
			<point x="240.539" y="427.318"/>
			<point x="212.379" y="531.033"/>
			<point x="201.69" y="582.462" type="curve"/>
			<point x="196.516" y="584.685"/>
			<point x="155.337" y="600.077"/>
			<point x="144.877" y="600" type="curve" smooth="yes"/>
			<point x="134.673" y="599.925"/>
			<point x="59.007" y="562.046"/>
			<point x="47.701" y="554.397" type="curve"/>
			<point x="88.795" y="453.743"/>
			<point x="147.033" y="383.727"/>
			<point x="172.431" y="345.994" type="curve"/>
			<point x="203.789" y="301.786"/>
			<point x="315.165" y="213.799"/>
			<point x="320.477" y="186.301" type="curve" smooth="yes"/>
		</contour>
		<contour>
			<point x="285.38" y="341.229" type="curve"/>
			<point x="332.739" y="289.869" type="line"/>
			<point x="374.167" y="322.873"/>
			<point x="417.426" y="367.327"/>
			<point x="430.19" y="387.799" type="curve"/>
			<point x="447.355" y="424.703"/>
			<point x="495.204" y="532.033"/>
			<point x="494.432" y="590.509" type="curve"/>
			<point x="489.276" y="592.732"/>
			<point x="460.017" y="603.111"/>
			<point x="449.557" y="603.034" type="curve" smooth="yes"/>
			<point x="439.352" y="602.959"/>
			<point x="360.244" y="567.04"/>
			<point x="345.67" y="556.684" type="curve"/>
			<point x="348.67" y="504.949"/>
			<point x="342.247" y="435.263"/>
			<point x="330.542" y="408.227" type="curve" smooth="yes"/>
			<point x="313.776" y="369.501"/>
			<point x="301.208" y="359.793"/>
		</contour>
		<contour>
			<point x="283.452" y="268.824" type="curve"/>
			<point x="234.074" y="307.922" type="line"/>
			<point x="172.872" y="256.094"/>
			<point x="133.799" y="224.559"/>
			<point x="105.211" y="194.571" type="curve"/>
			<point x="91.908" y="175.763"/>
			<point x="68.799" y="126.328"/>
			<point x="62.711" y="105.202" type="curve" smooth="yes"/>
			<point x="52.587" y="70.066"/>
			<point x="43.645" y="24.07"/>
			<point x="40.005" y="-0.014" type="curve"/>
			<point x="181.89" y="0.386" type="line"/>
			<point x="203.796" y="149.313"/>
			<point x="231.536" y="209.801"/>
		</contour>
	</outline>
</glyph>
<glyph name="y" format="2">
	<advance width="543.52"/>
	<unicode hex="0079"/>
	<outline>
		<contour>
			<point x="503.517" y="587.92" type="curve"/>
			<point x="498.663" y="591.905"/>
			<point x="461.246" y="603"/>
			<point x="450.33" y="602.92" type="curve" smooth="yes"/>
			<point x="439.68" y="602.842"/>
			<point x="362.088" y="567.124"/>
			<point x="356.23" y="557.092" type="curve"/>
			<point x="356.23" y="88.741" type="line"/>
			<point x="363.515" y="35.076"/>
			<point x="364.337" y="-7.938"/>
			<point x="364.337" y="-37.4" type="curve" smooth="yes"/>
			<point x="364.337" y="-67.681"/>
			<point x="328.017" y="-117.64"/>
			<point x="277.951" y="-117.64" type="curve" smooth="yes"/>
			<point x="209.23" y="-117.64"/>
			<point x="129.767" y="-86.455"/>
			<point x="97.518" y="-72.888" type="curve"/>
			<point x="52.566" y="-144.383" type="line"/>
			<point x="81.921" y="-161.364"/>
			<point x="216.854" y="-212.538"/>
			<point x="265.433" y="-212.538" type="curve" smooth="yes"/>
			<point x="303.377" y="-212.538"/>
			<point x="413.742" y="-194.668"/>
			<point x="422.369" y="-188.701" type="curve" smooth="yes"/>
			<point x="431.142" y="-182.634"/>
			<point x="496.369" y="-111.169"/>
			<point x="496.416" y="-88.053" type="curve"/>
			<point x="490.654" y="-28.723"/>
			<point x="491.943" y="36.37"/>
			<point x="489.61" y="77.413" type="curve"/>
			<point x="489.61" y="402.793" type="line"/>
			<point x="490.974" y="461.724"/>
			<point x="502.89" y="556.244"/>
		</contour>
		<contour>
			<point x="405.645" y="68.622" type="curve"/>
			<point x="366.59216" y="115.38819" type="line"/>
			<point x="348.25416" y="88.741"/>
			<point x="311.884" y="72.957"/>
			<point x="297.483" y="72.957" type="curve" smooth="yes"/>
			<point x="260.01" y="72.957"/>
			<point x="196.569" y="144.304"/>
			<point x="196.62" y="197.213" type="curve" smooth="yes"/>
			<point x="196.997" y="584.996" type="line"/>
			<point x="192.143" y="588.981"/>
			<point x="153.726" y="600.076"/>
			<point x="142.81" y="599.996" type="curve" smooth="yes"/>
			<point x="132.16" y="599.918"/>
			<point x="45.855" y="559.11"/>
			<point x="39.997" y="552.996" type="curve"/>
			<point x="59.722" y="496.525"/>
			<point x="65.258" y="391.016"/>
			<point x="65.258" y="299.156" type="curve" smooth="yes"/>
			<point x="65.258" y="209.227"/>
			<point x="76.363" y="127.224"/>
			<point x="89.131" y="95.471" type="curve"/>
			<point x="121.581" y="62.018"/>
			<point x="211.498" y="-10.95"/>
			<point x="268.192" y="-10.95" type="curve" smooth="yes"/>
			<point x="298.74535" y="-10.95"/>
			<point x="358.496" y="24.67"/>
		</contour>
	</outline>
</glyph>
<glyph name="z" format="2">
	<advance width="529"/>
	<unicode hex="007A"/>
	<outline>
		<contour>
			<point x="152.414" y="53.557" type="curve"/>
			<point x="50" y="79" type="line"/>
			<point x="337.788" y="472.924" type="line" smooth="yes"/>
			<point x="353.392" y="494.284"/>
			<point x="392" y="520.512"/>
			<point x="414.071" y="535.891" type="curve"/>
			<point x="479" y="497" type="line"/>
			<point x="457.307" y="466.68"/>
			<point x="278.255" y="189.208"/>
			<point x="258.556" y="160.028" type="curve" smooth="yes"/>
			<point x="230.211" y="118.04"/>
			<point x="179.09" y="85.088"/>
		</contour>
		<contour>
			<point x="479" y="0" type="line"/>
			<point x="50" y="0" type="line"/>
			<point x="50" y="79" type="line"/>
			<point x="135.424" y="79"/>
			<point x="210" y="85"/>
			<point x="281" y="85" type="curve" smooth="yes"/>
			<point x="315.726" y="85"/>
			<point x="412.5" y="90"/>
			<point x="479" y="94" type="curve"/>
		</contour>
		<contour>
			<point x="479" y="580" type="curve"/>
			<point x="479" y="497" type="line"/>
			<point x="466.389" y="498.522"/>
			<point x="443.701" y="506.19"/>
			<point x="415.904" y="507.671" type="curve" smooth="yes"/>
			<point x="370.666" y="510.082"/>
			<point x="335.567" y="512"/>
			<point x="261" y="512" type="curve" smooth="yes"/>
			<point x="172.833" y="512"/>
			<point x="91.948" y="506"/>
			<point x="48" y="506" type="curve"/>
			<point x="42.999" y="521.665"/>
			<point x="34.997" y="547.424"/>
			<point x="34.997" y="552.996" type="curve" smooth="yes"/>
			<point x="34.997" y="557.11"/>
			<point x="79.948" y="593.49"/>
			<point x="91.16" y="599.918" type="curve"/>
			<point x="409" y="600" type="line"/>
			<point x="420.448" y="600"/>
			<point x="466.617" y="585.591"/>
		</contour>
	</outline>
</glyph>
<glyph name="quotedblleft" format="2">
	<advance width="427.76"/>
	<unicode hex="201C"/>
	<outline>
		<contour>
			<point x="397.76278" y="757.04827" type="line"/>
			<point x="368.14078" y="696.54127"/>
			<point x="356.14078" y="623.79027"/>
			<point x="373.52778" y="531.54827" type="curve"/>
			<point x="359.87778" y="513.46627"/>
			<point x="346.58278" y="495.38427"/>
			<point x="336.13478" y="487.67727" type="curve"/>
			<point x="323.63078" y="482.33027"/>
			<point x="262.32378" y="476.06627"/>
			<point x="231.05578" y="487.67727" type="curve"/>
			<point x="225.97878" y="511.72827"/>
			<point x="208.20378" y="645.28227"/>
			<point x="345.09878" y="799.56327" type="curve"/>
		</contour>
		<contour>
			<point x="200.30178" y="757.04827" type="line"/>
			<point x="170.67978" y="696.54127"/>
			<point x="158.67978" y="623.79027"/>
			<point x="176.06678" y="531.54827" type="curve"/>
			<point x="162.41678" y="513.46627"/>
			<point x="149.12178" y="495.38427"/>
			<point x="138.67378" y="487.67727" type="curve"/>
			<point x="126.16978" y="482.33027"/>
			<point x="64.86278" y="476.06627"/>
			<point x="33.59478" y="487.67727" type="curve"/>
			<point x="28.51778" y="511.72827"/>
			<point x="10.74278" y="645.28227"/>
			<point x="147.63778" y="799.56327" type="curve"/>
		</contour>
	</outline>
</glyph>
<glyph name="leftArrow" format="2">
	<advance width="925"/>
	<unicode hex="2190"/>
	<outline>
		<contour>
			<point x="232" y="712" type="curve"/>
			<point x="281" y="809" type="line"/>
			<point x="424" y="733" type="line"/>
			<point x="359" y="634"/>
			<point x="313" y="555"/>
			<point x="263" y="474" type="curve"/>
			<point x="242" y="495" type="line"/>
			<point x="851" y="495" type="line"/>
			<point x="856" y="489"/>
			<point x="875" y="443"/>
			<point x="875" y="429" type="curve" smooth="yes"/>
			<point x="875" y="416"/>
			<point x="834" y="317"/>
			<point x="827" y="309" type="curve"/>
			<point x="766" y="325"/>
			<point x="669" y="329"/>
			<point x="616" y="329" type="curve"/>
			<point x="249" y="325" type="line"/>
			<point x="245" y="325"/>
			<point x="240" y="325"/>
			<point x="233" y="325" type="curve"/>
			<point x="258" y="343" type="line"/>
			<point x="309" y="260"/>
			<point x="357" y="178"/>
			<point x="424" y="76" type="curve"/>
			<point x="281" y="0" type="line"/>
			<point x="232" y="97" type="line"/>
			<point x="188" y="167"/>
			<point x="50" y="392"/>
			<point x="50" y="402" type="curve"/>
			<point x="50" y="409"/>
			<point x="189" y="643"/>
		</contour>
	</outline>
</glyph>
<glyph name="upArrow" format="2">
	<advance width="909"/>
	<unicode hex="2191"/>
	<guideline x="22" y="442" angle="0"/>
	<guideline x="22" y="596" angle="0"/>
	<outline>
		<contour>
			<point x="762" y="635" type="curve"/>
			<point x="859" y="586" type="line"/>
			<point x="783" y="443" type="line"/>
			<point x="684" y="508"/>
			<point x="605" y="554"/>
			<point x="524" y="604" type="curve"/>
			<point x="545" y="625" type="line"/>
			<point x="545" y="-4" type="line"/>
			<point x="539" y="-9"/>
			<point x="493" y="-28"/>
			<point x="479" y="-28" type="curve" smooth="yes"/>
			<point x="466" y="-28"/>
			<point x="367" y="13"/>
			<point x="359" y="20" type="curve"/>
			<point x="375" y="81"/>
			<point x="379" y="178"/>
			<point x="379" y="231" type="curve"/>
			<point x="375" y="618" type="line"/>
			<point x="375" y="622"/>
			<point x="375" y="627"/>
			<point x="375" y="634" type="curve"/>
			<point x="393" y="609" type="line"/>
			<point x="310" y="558"/>
			<point x="228" y="510"/>
			<point x="126" y="443" type="curve"/>
			<point x="50" y="586" type="line"/>
			<point x="147" y="635" type="line"/>
			<point x="217" y="679"/>
			<point x="442" y="817"/>
			<point x="452" y="817" type="curve"/>
			<point x="459" y="817"/>
			<point x="693" y="678"/>
		</contour>
	</outline>
</glyph>
<glyph name="upDownArrow" format="2">
	<advance width="923"/>
	<unicode hex="2195"/>
	<guideline x="30" y="421" angle="0"/>
	<guideline x="30" y="560" angle="0"/>
	<outline>
		<contour>
			<point x="378" y="23" type="line"/>
			<point x="375" y="642" type="line"/>
			<point x="393" y="617" type="line"/>
			<point x="310" y="566"/>
			<point x="228" y="518"/>
			<point x="126" y="451" type="curve"/>
			<point x="50" y="594" type="line"/>
			<point x="147" y="643" type="line"/>
			<point x="217" y="687"/>
			<point x="442" y="825"/>
			<point x="452" y="825" type="curve"/>
			<point x="459" y="825"/>
			<point x="693" y="686"/>
			<point x="762" y="643" type="curve"/>
			<point x="859" y="594" type="line"/>
			<point x="783" y="451" type="line"/>
			<point x="684" y="516"/>
			<point x="605" y="562"/>
			<point x="524" y="612" type="curve"/>
			<point x="545" y="633" type="line"/>
			<point x="548" y="14" type="line"/>
			<point x="530" y="39" type="line"/>
			<point x="613" y="90"/>
			<point x="695" y="138"/>
			<point x="797" y="205" type="curve"/>
			<point x="873" y="62" type="line"/>
			<point x="776" y="13" type="line"/>
			<point x="706" y="-31"/>
			<point x="481" y="-169"/>
			<point x="471" y="-169" type="curve"/>
			<point x="464" y="-169"/>
			<point x="230" y="-30"/>
			<point x="161" y="13" type="curve"/>
			<point x="64" y="62" type="line"/>
			<point x="140" y="205" type="line"/>
			<point x="239" y="140"/>
			<point x="318" y="94"/>
			<point x="399" y="44" type="curve"/>
		</contour>
	</outline>
</glyph>
<glyph name="northEastArrow" format="2">
	<advance width="845"/>
	<unicode hex="2197"/>
	<outline>
		<contour>
			<point x="159" y="727" type="line"/>
			<point x="239" y="740"/>
			<point x="509" y="777"/>
			<point x="515" y="774" type="curve"/>
			<point x="524" y="770"/>
			<point x="678" y="555"/>
			<point x="725" y="487" type="curve"/>
			<point x="795" y="404" type="line"/>
			<point x="669" y="302" type="line"/>
			<point x="601" y="404"/>
			<point x="545" y="480"/>
			<point x="488" y="559" type="curve"/>
			<point x="515" y="575" type="line"/>
			<point x="512" y="569"/>
			<point x="510" y="564"/>
			<point x="508" y="561" type="curve"/>
			<point x="353" y="206" type="line"/>
			<point x="333" y="157"/>
			<point x="298" y="66"/>
			<point x="289" y="4" type="curve"/>
			<point x="279" y="1"/>
			<point x="172" y="1"/>
			<point x="160" y="7" type="curve" smooth="yes"/>
			<point x="147" y="12"/>
			<point x="112" y="47"/>
			<point x="109" y="54" type="curve"/>
			<point x="355" y="633" type="line"/>
			<point x="366" y="606" type="line"/>
			<point x="272" y="591"/>
			<point x="181" y="580"/>
			<point x="64" y="559" type="curve"/>
			<point x="50" y="720" type="line"/>
		</contour>
	</outline>
</glyph>
<glyph name="pic.discapacidad" format="2">
	<advance width="712"/>
	<guideline y="1000"/>
	<guideline y="416"/>
	<guideline y="634"/>
	<outline>
		<contour>
			<point x="194" y="445" type="curve"/>
			<point x="198" y="430"/>
			<point x="201" y="390"/>
			<point x="201" y="380" type="curve"/>
			<point x="185" y="362"/>
			<point x="155" y="322"/>
			<point x="155" y="259" type="curve" smooth="yes"/>
			<point x="155" y="160"/>
			<point x="204" y="75"/>
			<point x="333" y="75" type="curve" smooth="yes"/>
			<point x="416" y="75"/>
			<point x="467" y="122"/>
			<point x="488" y="140" type="curve"/>
			<point x="541" y="86" type="line"/>
			<point x="529" y="69"/>
			<point x="464" y="-20"/>
			<point x="324" y="-20" type="curve" smooth="yes"/>
			<point x="135" y="-20"/>
			<point x="50" y="122"/>
			<point x="50" y="253" type="curve" smooth="yes"/>
			<point x="50" y="351"/>
			<point x="85" y="436"/>
			<point x="161" y="459" type="curve"/>
			<point x="165" y="458"/>
			<point x="187" y="450"/>
		</contour>
		<contour>
			<point x="237" y="289" type="line"/>
			<point x="241" y="322"/>
			<point x="245" y="373"/>
			<point x="245" y="388" type="curve"/>
			<point x="245" y="489" type="line"/>
			<point x="245" y="536"/>
			<point x="236" y="577"/>
			<point x="232" y="593" type="curve"/>
			<point x="241" y="596"/>
			<point x="295" y="610"/>
			<point x="306" y="610" type="curve" smooth="yes"/>
			<point x="312" y="610"/>
			<point x="338" y="604"/>
			<point x="341" y="601" type="curve"/>
			<point x="342" y="289" type="line"/>
		</contour>
		<contour>
			<point x="444" y="337" type="line"/>
			<point x="538" y="373" type="line"/>
			<point x="551" y="337"/>
			<point x="577" y="288"/>
			<point x="588" y="270" type="curve" smooth="yes"/>
			<point x="602" y="249"/>
			<point x="623" y="212"/>
			<point x="662" y="163" type="curve"/>
			<point x="574" y="118" type="line"/>
		</contour>
		<contour>
			<point x="293" y="646" type="curve" smooth="yes"/>
			<point x="347" y="646"/>
			<point x="393" y="685"/>
			<point x="393" y="740" type="curve" smooth="yes"/>
			<point x="393" y="795"/>
			<point x="347" y="830"/>
			<point x="293" y="830" type="curve" smooth="yes"/>
			<point x="237" y="830"/>
			<point x="193" y="795"/>
			<point x="193" y="740" type="curve" smooth="yes"/>
			<point x="193" y="685"/>
			<point x="237" y="646"/>
		</contour>
		<contour>
			<point x="302" y="289" type="curve"/>
			<point x="292" y="362" type="line"/>
			<point x="328" y="373"/>
			<point x="414" y="381"/>
			<point x="469" y="381" type="curve" smooth="yes"/>
			<point x="494" y="381"/>
			<point x="538" y="380"/>
			<point x="546" y="378" type="curve"/>
			<point x="571" y="289" type="line"/>
			<point x="483" y="289"/>
			<point x="393" y="289"/>
		</contour>
		<contour>
			<point x="282" y="453" type="line"/>
			<point x="282" y="502" type="line"/>
			<point x="318" y="522"/>
			<point x="429" y="532"/>
			<point x="441" y="532" type="curve" smooth="yes"/>
			<point x="445" y="532"/>
			<point x="462" y="531"/>
			<point x="467" y="530" type="curve"/>
			<point x="468" y="453" type="line"/>
		</contour>
	</outline>
</glyph>
